<?xml version="1.0" standalone="no"?>
<!DOCTYPE svg PUBLIC "-//W3C//DTD SVG 20010904//EN"
 "http://www.w3.org/TR/2001/REC-SVG-20010904/DTD/svg10.dtd">
<svg version="1.0" xmlns="http://www.w3.org/2000/svg"
 width="1024.000000pt" height="1024.000000pt" viewBox="0 0 1024.000000 1024.000000"
 preserveAspectRatio="xMidYMid meet">
<metadata>
Created by potrace 1.14, written by Peter Selinger 2001-2017
</metadata>
<g transform="translate(0.000000,1024.000000) scale(0.100000,-0.100000)"
fill="#000000" stroke="none">
<path d="M4850 8604 c-14 -2 -65 -9 -115 -15 -592 -73 -1179 -344 -1642 -758
-260 -232 -516 -576 -674 -906 -104 -218 -161 -380 -214 -615 -84 -372 -94
-770 -29 -1153 91 -537 332 -1034 711 -1469 161 -186 341 -339 586 -502 410
-272 863 -429 1340 -462 l97 -7 1 -201 c1 -111 1 -331 0 -491 -1 -159 3 -307
8 -328 28 -116 139 -175 243 -129 57 25 95 75 108 141 5 30 10 254 9 524 l0
472 23 7 c59 16 82 9 148 -50 377 -331 883 -567 1343 -627 153 -20 491 -20
564 -1 143 38 250 121 308 240 99 199 43 430 -133 556 -83 60 -156 77 -352 85
-182 7 -342 25 -441 50 -94 23 -279 86 -279 93 0 4 54 35 119 70 496 264 904
689 1165 1212 155 312 246 620 291 990 18 145 20 503 5 648 -74 679 -384 1307
-886 1793 -455 439 -1001 711 -1639 815 -95 15 -600 29 -665 18z m30 -350
c-196 -105 -329 -211 -560 -444 -61 -62 -102 -94 -145 -114 -33 -16 -104 -50
-159 -77 -54 -28 -101 -48 -103 -45 -10 10 82 178 162 296 71 106 255 288 330
327 105 54 309 95 510 101 l50 2 -85 -46z m578 20 c28 -4 52 -10 52 -15 0 -4
-24 -15 -52 -25 -130 -42 -412 -196 -614 -335 -42 -28 -123 -56 -190 -64 -21
-3 -53 -10 -71 -16 -18 -6 -40 -9 -50 -8 -18 2 -42 -5 -78 -22 -28 -14 142
150 222 214 189 149 368 238 540 267 61 10 173 12 241 4z m433 -93 c41 -11
116 -37 167 -58 l93 -39 -133 -17 c-160 -20 -269 -47 -523 -133 -209 -70 -240
-76 -232 -44 3 11 1 20 -3 20 -5 0 -12 -9 -15 -20 -7 -22 -35 -26 -53 -8 -9 9
-12 9 -12 0 0 -8 -14 -12 -40 -10 -25 2 -40 8 -40 16 0 7 -5 10 -10 7 -6 -4
-8 -10 -5 -15 3 -4 -3 -7 -12 -5 -10 2 -29 4 -43 4 -34 1 179 136 325 206 231
110 378 137 536 96z m-1804 -138 c-106 -129 -178 -239 -262 -404 l-80 -157
-115 -82 c-63 -45 -154 -118 -202 -162 -49 -44 -88 -77 -88 -74 0 16 62 190
95 266 131 304 274 486 455 580 50 27 240 108 253 109 5 1 -20 -34 -56 -76z
m2183 -74 c106 -13 170 -36 273 -96 86 -50 282 -192 275 -198 -2 -2 -29 2 -59
10 -183 48 -285 58 -599 60 -253 2 -313 5 -350 18 -25 9 -53 17 -62 17 -10 0
-18 8 -18 17 0 13 -3 14 -12 5 -16 -16 -23 -15 -42 4 -9 8 -16 11 -16 6 0 -5
-20 -3 -45 6 -73 24 -64 32 85 81 220 71 392 93 570 70z m-2803 -256 c-67
-106 -154 -310 -242 -568 -27 -77 -55 -151 -63 -165 -9 -14 -36 -56 -61 -95
-86 -135 -161 -272 -208 -385 -9 -23 -12 -17 -29 55 -28 117 -25 340 4 450 45
166 150 325 341 516 101 101 270 242 279 234 2 -2 -8 -21 -21 -42z m2991 -73
c369 -39 581 -150 771 -404 69 -92 125 -176 117 -176 -2 0 -33 17 -67 38 -180
109 -367 195 -574 264 -66 22 -160 59 -210 83 -92 45 -226 116 -235 125 -3 3
-17 11 -32 19 -16 8 -28 18 -28 23 0 5 -4 6 -10 3 -5 -3 -26 3 -47 14 l-38 20
130 0 c72 1 172 -4 223 -9z m-1018 -143 c305 -67 540 -193 766 -410 164 -158
271 -309 360 -510 169 -381 217 -835 133 -1247 -110 -537 -413 -941 -874
-1165 -100 -49 -266 -115 -287 -115 -5 0 5 21 23 46 45 66 103 195 135 299 24
77 27 108 28 220 1 94 -4 147 -17 193 -53 195 -186 350 -359 418 l-68 27 0
201 0 202 29 17 c35 21 80 76 111 137 35 67 39 195 10 272 -28 76 -104 159
-178 195 -51 25 -68 28 -157 28 -82 0 -109 -4 -147 -22 -66 -30 -143 -105
-175 -172 -25 -50 -28 -67 -28 -156 1 -88 4 -106 27 -150 28 -53 89 -124 123
-143 19 -10 20 -23 23 -211 3 -187 2 -201 -15 -207 -194 -67 -341 -219 -403
-419 -17 -54 -23 -104 -27 -215 -6 -163 12 -278 66 -430 l29 -82 -27 7 c-56
14 -180 69 -264 117 -432 247 -704 649 -798 1183 -31 172 -33 513 -5 670 41
231 96 407 182 580 76 153 169 281 304 415 248 248 522 385 889 445 140 23
446 13 591 -18z m1389 -283 c359 -143 604 -316 693 -489 34 -67 78 -180 92
-237 5 -22 -4 -17 -57 36 -92 92 -214 187 -377 294 -80 52 -163 111 -185 130
-79 71 -307 312 -295 312 7 0 65 -21 129 -46z m-3382 -291 c-4 -3 -1 -13 6
-22 11 -14 10 -14 -5 -2 -16 12 -16 31 -1 31 4 0 3 -3 0 -7z m-33 -49 c4 -11
2 -15 -8 -11 -21 8 -27 -3 -11 -20 13 -13 13 -16 0 -29 -17 -18 -20 -34 -4
-34 5 0 7 -5 3 -12 -6 -9 -9 -9 -12 0 -2 7 -10 12 -17 12 -14 0 -13 -36 1 -49
4 -3 4 3 0 14 -5 16 -2 15 14 -5 11 -14 20 -28 20 -32 0 -11 -18 -10 -22 1 -1
4 -14 12 -28 16 -23 7 -23 7 -7 -9 23 -24 40 -56 32 -64 -3 -3 -8 4 -12 16 -6
23 -18 29 -28 12 -3 -5 3 -17 15 -27 28 -24 25 -35 -7 -27 l-28 7 28 -22 c31
-26 37 -47 8 -31 -30 15 -38 12 -13 -6 12 -8 22 -19 22 -24 0 -11 -32 -1 -41
13 -4 5 -9 5 -13 -1 -3 -6 2 -13 13 -17 36 -11 36 -69 0 -78 -10 -3 -19 -10
-19 -17 0 -6 5 -8 10 -5 13 8 12 4 -1 -50 -7 -29 -15 -42 -24 -39 -10 4 -13
-9 -12 -53 1 -53 -6 -114 -18 -153 -23 -79 -37 -516 -20 -635 l7 -50 -36 40
c-85 95 -199 300 -227 409 -10 40 -8 61 15 166 15 66 40 161 57 212 70 216
243 517 272 476 5 -9 7 -6 3 7 -6 22 30 73 42 60 4 -4 1 -10 -5 -12 -19 -7
-16 -23 3 -23 12 0 15 7 11 28 -3 17 0 33 10 45 20 21 19 21 27 1z m-655 -294
c7 -36 23 -108 37 -160 18 -69 23 -107 19 -139 -4 -26 -10 -39 -14 -32 -4 6
-7 -3 -7 -21 0 -18 -11 -95 -24 -170 l-24 -137 -19 31 c-56 93 -130 342 -143
480 -6 66 -3 83 25 168 18 52 53 135 79 183 l47 88 6 -113 c4 -62 12 -142 18
-178z m665 222 c3 -5 -1 -9 -9 -9 -8 0 -15 4 -15 9 0 4 4 8 9 8 6 0 12 -4 15
-8z m3412 -53 c57 -38 112 -103 156 -183 20 -36 33 -64 29 -62 -57 35 -115 80
-114 87 2 4 -3 6 -10 3 -7 -2 -23 5 -35 16 -12 11 -22 18 -22 15 0 -3 -9 -1
-20 5 -12 6 -18 16 -14 23 4 7 4 9 -1 5 -12 -12 -35 11 -28 29 3 8 1 18 -4 22
-13 8 -63 81 -63 92 0 13 78 -20 126 -52z m397 -85 c139 -90 278 -217 364
-335 93 -126 131 -239 140 -419 6 -121 0 -131 -31 -52 -20 52 -128 218 -187
288 -24 28 -74 85 -110 125 -52 57 -83 107 -139 218 -39 79 -83 161 -96 182
-13 22 -22 39 -18 39 3 0 38 -21 77 -46z m-327 -205 c77 -49 172 -137 201
-186 14 -25 37 -74 49 -109 23 -62 68 -263 61 -270 -2 -2 -19 18 -38 44 -20
26 -82 101 -138 166 -57 66 -109 130 -118 142 -17 27 -83 244 -74 244 4 0 29
-14 57 -31z m-4349 -349 c13 -41 54 -138 90 -214 37 -76 67 -153 69 -170 1
-17 10 -96 20 -176 10 -80 18 -166 19 -192 0 -27 2 -48 5 -48 3 0 7 -10 8 -22
4 -40 8 -57 15 -64 4 -4 7 -12 7 -18 -1 -28 -171 192 -233 299 -112 195 -130
377 -65 655 21 92 23 94 32 60 5 -19 20 -69 33 -110z m2547 -1 c31 -37 33 -70
6 -115 -30 -47 -80 -62 -123 -37 -40 24 -61 64 -52 103 18 80 118 109 169 49z
m2416 -126 c27 -39 71 -115 97 -169 43 -88 47 -104 47 -168 0 -103 -57 -221
-197 -408 -28 -38 -55 -68 -60 -68 -4 0 -5 5 -2 10 14 22 35 213 41 370 9 210
-5 360 -51 570 -5 21 0 18 34 -20 22 -25 63 -77 91 -117z m-453 -63 c46 -58
101 -138 121 -179 35 -71 37 -81 40 -189 2 -63 1 -130 -3 -150 l-7 -35 -23 40
c-12 23 -61 97 -108 165 -110 160 -113 168 -120 268 -4 47 -9 114 -13 150 -7
62 -7 64 11 50 10 -8 56 -62 102 -120z m-3999 -395 c20 -27 74 -97 119 -154
64 -79 87 -116 99 -160 24 -88 84 -273 100 -310 12 -26 12 -32 2 -24 -7 6 -42
32 -78 59 -125 94 -237 220 -290 324 -38 74 -60 188 -66 335 l-6 120 42 -70
c23 -38 58 -92 78 -120z m3958 -37 c25 -35 67 -106 93 -158 43 -89 46 -99 45
-175 0 -83 -19 -161 -59 -246 -23 -51 -35 -54 -35 -10 -1 24 -53 184 -110 336
-21 56 -22 66 -11 152 6 50 11 108 11 127 0 20 4 36 10 36 5 0 31 -28 56 -62z
m-4452 -183 c28 -38 93 -117 144 -175 103 -115 106 -121 151 -264 17 -55 45
-126 62 -159 16 -33 28 -61 26 -64 -9 -8 -164 123 -250 210 -93 96 -186 225
-213 298 -11 29 -18 87 -21 174 l-5 130 28 -40 c15 -22 50 -71 78 -110z m5131
-50 c0 -123 -11 -161 -76 -276 -91 -158 -218 -284 -392 -389 l-39 -23 25 49
c34 67 90 205 117 289 20 62 33 81 110 162 81 84 174 212 217 296 15 30 19 32
28 18 5 -9 10 -65 10 -126z m-781 -209 c37 -94 69 -259 63 -331 -3 -33 -16
-86 -30 -118 -25 -54 -31 -60 -89 -86 -82 -37 -318 -93 -318 -76 0 3 22 36 49
73 107 147 195 322 253 499 18 57 36 103 39 103 4 0 18 -29 33 -64z m-3664
-197 c36 -30 101 -80 146 -111 67 -47 91 -72 144 -150 35 -51 83 -117 108
-146 44 -53 44 -53 16 -46 -141 34 -395 170 -458 245 -54 64 -139 259 -161
369 l-7 35 74 -71 c40 -39 102 -96 138 -125z m2071 131 c56 -29 117 -93 145
-153 31 -67 33 -170 5 -225 -26 -50 -103 -123 -175 -166 l-60 -36 -11 28 c-30
70 -28 98 9 153 20 28 41 69 47 91 10 38 7 176 -7 286 -3 23 -3 42 1 42 3 0
24 -9 46 -20z m-428 -17 c3 -16 3 -64 0 -108 l-5 -80 -58 -62 c-63 -67 -126
-170 -136 -221 -4 -18 -11 -32 -17 -32 -6 0 -8 43 -5 123 6 142 30 225 84 300
31 42 106 107 124 107 4 0 10 -12 13 -27z m-2290 -157 c65 -70 217 -201 335
-289 78 -57 141 -112 151 -130 9 -17 45 -73 80 -125 41 -61 57 -92 45 -87 -11
4 -50 18 -88 31 -88 30 -226 104 -295 157 -119 92 -220 263 -256 435 -8 38 -2
40 28 8z m4957 -139 c-59 -207 -158 -321 -362 -416 -45 -22 -112 -47 -148 -56
-36 -9 -74 -19 -84 -22 -15 -4 -11 5 16 38 20 24 58 80 86 124 47 76 54 83
139 131 123 69 230 145 305 214 35 32 64 57 65 56 2 -1 -6 -32 -17 -69z
m-2586 -68 c20 -40 36 -86 36 -103 0 -44 35 -182 60 -241 12 -27 26 -61 31
-73 l9 -24 -37 23 c-104 63 -188 143 -246 236 -32 51 -33 62 -8 112 24 46 98
141 111 141 5 0 25 -32 44 -71z m500 -176 c-11 -47 -46 -125 -81 -180 -36 -57
-53 -72 -53 -49 0 9 4 16 9 16 5 0 11 10 14 23 6 21 6 21 -13 -3 -10 -14 -22
-21 -27 -17 -4 5 -1 12 7 17 9 6 10 10 3 10 -6 0 -15 -5 -19 -11 -6 -11 -24 9
-25 28 0 5 -5 13 -10 19 -11 13 16 38 91 86 30 20 66 47 79 62 31 33 33 33 25
-1z m-2039 -46 c55 -24 161 -65 235 -92 165 -58 177 -64 265 -129 83 -63 255
-167 337 -206 l59 -28 -33 -10 c-152 -46 -360 -47 -453 -2 -141 68 -413 334
-509 498 -10 16 -14 18 99 -31z m3356 -51 c-100 -130 -153 -170 -257 -196 -84
-20 -241 -40 -321 -40 l-48 0 35 28 c19 15 61 50 94 77 125 107 116 103 326
145 106 22 196 42 198 45 3 3 7 3 10 0 3 -2 -14 -29 -37 -59z m-1938 -89 c73
-74 136 -126 222 -183 147 -97 196 -145 260 -260 59 -105 64 -120 39 -109 -11
4 -49 18 -86 30 -195 68 -412 216 -487 334 -39 60 -71 154 -73 207 0 40 9 84
18 84 3 0 51 -47 107 -103z m-1873 -73 c47 -23 148 -65 225 -94 129 -49 145
-57 205 -114 36 -34 92 -85 124 -114 l60 -52 -40 0 c-55 0 -224 27 -292 46
-137 39 -249 132 -330 271 -42 73 -57 107 -45 101 5 -1 46 -22 93 -44z m4291
-22 c-43 -85 -144 -198 -214 -239 -83 -49 -244 -94 -390 -108 l-68 -7 116 113
c64 63 129 120 143 128 15 8 86 31 158 52 72 21 160 51 195 68 35 16 67 30 72
30 4 1 -1 -16 -12 -37z m-771 -129 c0 -25 -209 -177 -284 -205 -72 -28 -182
-33 -298 -14 -91 15 -202 49 -212 64 -2 4 62 34 142 66 l147 59 184 9 c102 5
210 13 240 17 77 12 81 12 81 4z m-1932 -159 c15 -4 33 -11 40 -17 18 -15 43
-77 36 -89 -10 -15 -161 -85 -217 -99 -43 -12 -53 -11 -140 18 -51 18 -125 46
-163 64 l-69 32 110 18 c111 19 279 59 325 78 14 5 31 8 38 5 8 -2 26 -7 40
-10z m432 -111 c89 -52 156 -84 302 -142 156 -62 204 -93 213 -135 2 -12 6
-102 8 -201 5 -186 23 -287 72 -400 l17 -40 -28 25 c-109 94 -139 126 -184
192 -61 92 -109 263 -110 395 0 32 -5 45 -20 53 -28 15 -56 4 -64 -23 -14 -54
-5 -184 20 -272 17 -58 -165 206 -246 359 -41 75 -130 277 -130 293 0 2 26
-15 58 -40 31 -24 73 -52 92 -64z m879 -42 l135 -27 -85 -36 c-92 -39 -182
-63 -198 -53 -27 16 -131 156 -125 167 4 7 3 8 -4 4 -6 -3 -16 2 -22 13 -9 18
-3 17 77 -10 49 -17 149 -43 222 -58z m-2295 -16 c176 -18 185 -20 317 -98 52
-30 101 -57 109 -59 8 -3 -12 -11 -45 -19 -77 -17 -321 -18 -396 -1 -69 16
-157 67 -241 140 -103 90 -103 92 5 71 51 -10 163 -25 251 -34z m3279 7 c-50
-66 -272 -212 -325 -212 -15 0 -30 -5 -33 -11 -4 -5 -12 -8 -18 -6 -7 2 -19 1
-28 -4 -8 -4 -50 -11 -92 -14 -76 -7 -77 -7 -78 17 -2 23 -2 23 -6 1 -4 -18
-11 -23 -36 -22 -18 1 -43 4 -56 8 -21 6 -22 8 -7 20 9 7 16 19 16 25 0 6 -4
5 -9 -3 -6 -10 -10 -10 -16 -1 -9 14 -21 4 115 85 163 97 152 93 311 110 79 9
173 22 209 29 36 7 67 11 69 9 3 -2 -5 -16 -16 -31z m-2153 -46 c0 -2 7 -20
15 -40 15 -35 15 -35 -7 -27 -13 4 -29 6 -35 4 -7 -3 -13 1 -13 9 0 9 -2 10
-8 1 -5 -8 -15 -8 -37 2 -19 9 -24 14 -12 14 28 2 31 3 56 22 22 17 41 24 41
15z m1455 -166 c3 -6 -1 -7 -9 -4 -18 7 -21 14 -7 14 6 0 13 -4 16 -10z
m-1833 -72 c60 -17 108 -34 108 -38 0 -10 -122 -64 -205 -90 -40 -12 -109 -24
-160 -27 -79 -5 -99 -2 -163 20 -40 14 -105 45 -145 68 l-72 43 146 13 c80 6
179 18 220 26 111 22 154 20 271 -15z m1468 -195 c43 -49 64 -94 100 -218 55
-190 124 -348 196 -447 19 -27 31 -48 28 -48 -4 0 -56 28 -117 63 -156 87
-229 161 -296 298 -27 57 -57 131 -66 164 -19 70 -31 236 -21 288 l7 36 69
-51 c39 -28 84 -66 100 -85z m460 128 c116 -1 119 -7 24 -46 -41 -17 -63 -21
-75 -14 -12 6 -20 5 -25 -3 -5 -7 -2 -8 7 -3 11 6 11 5 2 -5 -8 -8 -21 -10
-40 -5 -15 5 -32 7 -37 6 -5 -1 -6 5 -3 13 4 11 1 13 -11 9 -14 -5 -15 -3 -4
8 18 20 15 27 -13 27 -14 0 -22 -5 -18 -11 3 -6 1 -7 -5 -3 -6 4 -9 13 -6 20
4 10 20 13 52 11 26 -1 94 -3 152 -4z m-1555 -21 c-3 -5 -2 -10 4 -10 6 0 16
-18 22 -40 9 -31 9 -43 -1 -54 -16 -21 -123 -71 -217 -102 -69 -23 -81 -24
-144 -14 -82 12 -203 50 -192 60 4 3 30 12 57 18 27 7 124 44 215 82 125 52
178 69 214 70 30 0 46 -4 42 -10z m194 -216 c-2 -42 -6 -54 -18 -54 -13 0 -13
-2 -2 -9 9 -6 -1 -9 -28 -9 -26 -1 -39 3 -35 10 4 6 -1 6 -14 -1 -13 -7 -45
-8 -94 -3 l-73 8 125 61 c69 33 129 58 133 56 4 -3 7 -29 6 -59z m1207 -120
c51 -25 110 -62 131 -82 21 -21 77 -103 125 -182 100 -168 143 -226 247 -333
76 -77 76 -77 41 -71 -80 15 -208 57 -261 85 -58 31 -155 122 -208 194 -46 64
-116 212 -150 318 -32 100 -35 117 -25 117 4 0 48 -21 100 -46z m454 -209
c119 -33 167 -61 227 -132 185 -218 265 -293 368 -346 l50 -26 -45 -2 c-104
-4 -185 3 -196 17 -8 10 -13 11 -16 4 -5 -15 -61 5 -125 46 -116 74 -243 214
-345 382 -53 85 -56 96 -30 88 9 -3 60 -17 112 -31z m530 -110 c47 -8 114 -17
150 -21 74 -8 104 -20 141 -61 58 -62 60 -151 4 -203 -21 -20 -31 -22 -81 -17
-81 8 -166 54 -255 135 -69 65 -159 169 -159 186 0 8 73 1 200 -19z"/>
<path d="M4784 7900 c0 -13 4 -16 10 -10 7 7 7 13 0 20 -6 6 -10 3 -10 -10z"/>
<path d="M5721 7844 c0 -11 3 -14 6 -6 3 7 2 16 -1 19 -3 4 -6 -2 -5 -13z"/>
<path d="M5685 7810 c3 -5 8 -10 11 -10 2 0 4 5 4 10 0 6 -5 10 -11 10 -5 0
-7 -4 -4 -10z"/>
<path d="M3300 6740 c0 -5 5 -10 10 -10 6 0 10 5 10 10 0 6 -4 10 -10 10 -5 0
-10 -4 -10 -10z"/>
<path d="M3303 6705 c-12 -13 -7 -25 9 -25 5 0 7 4 4 9 -4 5 -1 11 6 13 7 3 8
7 3 10 -6 3 -15 0 -22 -7z"/>
<path d="M3281 6624 c0 -11 3 -14 6 -6 3 7 2 16 -1 19 -3 4 -6 -2 -5 -13z"/>
<path d="M3265 6570 c3 -5 11 -10 16 -10 6 0 7 5 4 10 -3 6 -11 10 -16 10 -6
0 -7 -4 -4 -10z"/>
<path d="M3290 6513 c8 -3 19 -13 24 -21 7 -12 10 -12 17 -1 11 19 1 29 -29
28 -16 0 -21 -3 -12 -6z"/>
<path d="M2751 5264 c0 -11 3 -14 6 -6 3 7 2 16 -1 19 -3 4 -6 -2 -5 -13z"/>
<path d="M6237 3469 c7 -7 15 -10 18 -7 3 3 -2 9 -12 12 -14 6 -15 5 -6 -5z"/>
<path d="M6170 3309 c0 -5 -4 -8 -9 -5 -5 4 -7 -3 -4 -14 6 -23 6 -23 22 8 8
14 8 22 1 22 -5 0 -10 -5 -10 -11z"/>
<path d="M4877 3089 c7 -7 15 -10 18 -7 3 3 -2 9 -12 12 -14 6 -15 5 -6 -5z"/>
</g>
</svg>
